<svg width="97" height="97" viewBox="0 0 97 97" fill="none" xmlns="http://www.w3.org/2000/svg">
<g clip-path="url(#clip0_1_30)">
<path d="M48.5 61.3C55.5693 61.3 61.3 55.5693 61.3 48.5C61.3 41.4308 55.5693 35.7 48.5 35.7C41.4308 35.7 35.7 41.4308 35.7 48.5C35.7 55.5693 41.4308 61.3 48.5 61.3Z" fill="black"/>
<path d="M36.5 8.5L29.18 16.5H16.5C12.1 16.5 8.5 20.1 8.5 24.5V72.5C8.5 76.9 12.1 80.5 16.5 80.5H80.5C84.9 80.5 88.5 76.9 88.5 72.5V24.5C88.5 20.1 84.9 16.5 80.5 16.5H67.82L60.5 8.5H36.5ZM48.5 68.5C37.46 68.5 28.5 59.54 28.5 48.5C28.5 37.46 37.46 28.5 48.5 28.5C59.54 28.5 68.5 37.46 68.5 48.5C68.5 59.54 59.54 68.5 48.5 68.5Z" fill="black"/>
</g>
<defs>
<clipPath id="clip0_1_30">
<rect width="96" height="96" fill="white" transform="translate(0.5 0.5)"/>
</clipPath>
</defs>
</svg>
