<svg width="23" height="22" viewBox="0 0 23 22" fill="none" xmlns="http://www.w3.org/2000/svg">
<path d="M8.8761 16.8633C8.58627 16.8633 8.35132 17.0983 8.35132 17.3881C8.35132 17.6778 8.58627 17.9128 8.8761 17.9128H14.1239C14.4137 17.9128 14.6487 17.6778 14.6487 17.3881C14.6487 17.0983 14.4137 16.8633 14.1239 16.8633H8.8761Z" fill="#ADB5BD" stroke="#ADB5BD" stroke-width="0.5"/>
<path fill-rule="evenodd" clip-rule="evenodd" d="M13.7763 1.20038C12.4417 0.146748 10.5583 0.146748 9.22375 1.20038L2.40161 6.58628C1.51921 7.28291 1.00439 8.34526 1.00439 9.4695V17.9145C1.00439 19.9433 2.64905 21.5879 4.67785 21.5879H18.3221C20.3509 21.5879 21.9956 19.9433 21.9956 17.9145V9.4695C21.9956 8.34526 21.4808 7.28291 20.5984 6.58628L13.7763 1.20038ZM9.87412 2.02416C10.8274 1.27156 12.1725 1.27156 13.1259 2.02416L19.948 7.41006C20.5783 7.90765 20.946 8.66647 20.946 9.4695V17.9145C20.946 19.3636 19.7713 20.5384 18.3221 20.5384H4.67785C3.22872 20.5384 2.05395 19.3636 2.05395 17.9145V9.4695C2.05395 8.66647 2.42168 7.90765 3.05197 7.41006L9.87412 2.02416Z" fill="#ADB5BD" stroke="#ADB5BD" stroke-width="0.5"/>
</svg>
