<svg width="19" height="19" viewBox="0 0 19 19" fill="none" xmlns="http://www.w3.org/2000/svg">
<path d="M5.1702 4.38204L3.59595 2.80778C3.37852 2.59036 3.02624 2.59036 2.80882 2.80778C2.5914 3.02521 2.5914 3.37749 2.80882 3.59491L4.38307 5.16916C4.6005 5.38659 4.95278 5.38659 5.1702 5.16916C5.38762 4.95174 5.38762 4.59946 5.1702 4.38204Z" fill="white"/>
<path d="M2.82031 8.94336H0.556641C0.248967 8.94336 0 9.19233 0 9.5C0 9.80767 0.248967 10.0566 0.556641 10.0566H2.82031C3.12799 10.0566 3.37695 9.80767 3.37695 9.5C3.37695 9.19233 3.12799 8.94336 2.82031 8.94336Z" fill="white"/>
<path d="M18.4434 8.94336H16.1797C15.872 8.94336 15.623 9.19233 15.623 9.5C15.623 9.80767 15.872 10.0566 16.1797 10.0566H18.4434C18.751 10.0566 19 9.80767 19 9.5C19 9.19233 18.751 8.94336 18.4434 8.94336Z" fill="white"/>
<path d="M16.1917 2.80778C15.9743 2.59036 15.622 2.59036 15.4046 2.80778L13.8303 4.38204C13.6129 4.59946 13.6129 4.95174 13.8303 5.16916C14.0477 5.38659 14.4 5.38659 14.6174 5.16916L16.1917 3.59491C16.4091 3.37749 16.4091 3.02524 16.1917 2.80778Z" fill="white"/>
<path d="M9.5 0C9.19233 0 8.94336 0.248967 8.94336 0.556641V2.82031C8.94336 3.12799 9.19233 3.37695 9.5 3.37695C9.80767 3.37695 10.0566 3.12799 10.0566 2.82031V0.556641C10.0566 0.248967 9.80767 0 9.5 0Z" fill="white"/>
<path d="M12.6177 5.5692C11.4043 4.61178 9.8345 4.2667 8.29817 4.63408C6.51692 5.04599 5.08082 6.45982 4.64661 8.22998C4.21243 10.0112 4.7134 11.8147 5.99364 13.0727C6.45012 13.5292 6.71731 14.2454 6.71731 14.9802V15.1026C6.71731 15.4143 6.96219 15.6593 7.27395 15.6593H11.7271C12.0388 15.6593 12.2837 15.4143 12.2837 15.1026V14.9802C12.2837 14.2565 12.562 13.518 13.0519 13.0393C13.9871 12.093 14.5103 10.8351 14.5103 9.49912C14.5103 7.96279 13.82 6.52662 12.6177 5.5692ZM9.50051 7.8292C8.66073 7.8292 8.04939 8.38625 7.8893 9.0311C7.81645 9.32437 7.52136 9.51155 7.21469 9.4377C6.91681 9.36378 6.73468 9.06153 6.80863 8.76365C7.08443 7.65037 8.1301 6.71592 9.50051 6.71592C9.80819 6.71592 10.0572 6.96488 10.0572 7.27256C10.0572 7.58023 9.80819 7.8292 9.50051 7.8292Z" fill="white"/>
<path d="M7.27344 16.7734V17.3301C7.27344 18.2509 8.02253 19 8.94336 19H10.0566C10.9775 19 11.7266 18.2509 11.7266 17.3301V16.7734H7.27344Z" fill="white"/>
</svg>
