<svg width="89" height="73" viewBox="0 0 89 73" fill="none" xmlns="http://www.w3.org/2000/svg">
<path d="M27.5524 42.3756C27.9585 41.9695 27.9585 41.2926 27.5524 40.8864L24.3031 37.6372L28.5001 33.4402C28.9062 33.0341 28.9062 32.3571 28.5001 31.951C28.0939 31.5448 27.417 31.5448 27.0108 31.951L22.8139 36.1479L19.0231 32.3571C18.6169 31.951 17.94 31.951 17.5339 32.3571C17.1277 32.7633 17.1277 33.4402 17.5339 33.8464L21.3246 37.6372L17.5339 41.4279C17.1277 41.8341 17.1277 42.511 17.5339 42.9172C17.94 43.3233 18.6169 43.3233 19.0231 42.9172L22.8139 39.1264L26.0631 42.3756C26.6047 42.7818 27.1462 42.7818 27.5524 42.3756Z" fill="#495057"/>
<path d="M27.1462 55.7788C26.74 56.1849 26.74 56.8618 27.2816 57.268C27.6877 57.6741 28.3647 57.6741 28.7708 57.1326C35.4047 49.8218 46.7771 49.9572 53.2755 56.7265C53.6817 57.1326 54.3586 57.1326 54.7648 56.7265C55.1709 56.3203 55.1709 55.6434 54.7648 55.2372C47.3186 47.6556 34.5924 47.5203 27.1462 55.7788Z" fill="#495057"/>
<path d="M77.7803 63.9018L81.3003 28.0247C81.4357 26.5355 80.8941 25.0463 79.9465 23.9632C78.9988 22.8801 77.5095 22.2032 76.0203 22.2032V12.8616C76.0203 9.3416 73.3126 6.49851 69.7926 6.36312L12.7954 5.55081C9.14001 5.55081 6.43231 8.3939 6.29692 11.7785V14.2155C4.6723 14.6216 3.45383 15.7047 2.77691 17.3293C1.9646 18.277 1.42305 19.4955 1.15228 20.4432C0.475359 22.8801 0.610744 25.4524 0.881514 28.0247C1.9646 39.9386 3.04768 51.7172 3.99537 63.631C4.40153 68.7757 5.75538 70.9418 13.2016 71.348C34.457 72.4311 55.7125 72.2957 76.968 71.8895C77.7803 71.8895 78.728 71.8895 79.4049 71.4834C80.2172 71.0772 80.7588 70.2649 80.6234 69.4526C80.2172 67.6926 77.2388 67.9634 75.4787 67.828C76.6972 67.0157 77.5095 65.6618 77.7803 63.9018ZM12.7954 7.71697L69.7926 8.52929C72.0941 8.52929 74.1249 10.5601 73.9895 12.8616V22.3386H54.0879C52.5986 22.3386 51.1094 21.6616 50.0263 20.5786L46.9125 17.0585C45.2878 15.2985 42.9863 14.2155 40.5494 14.2155H8.3277V12.0493C8.3277 9.47698 10.3585 7.58159 12.7954 7.71697ZM72.5003 66.7449H11.4416C9.81694 66.7449 8.3277 65.5264 8.19231 63.7664L4.26614 19.6309C4.13076 17.7355 5.61999 16.1109 7.51539 16.1109H40.5494C42.4448 16.1109 44.2048 16.9232 45.4232 18.277L48.5371 21.797C49.8909 23.4217 51.9217 24.3693 54.0879 24.3693H76.0203C76.968 24.3693 77.7803 24.7755 78.4572 25.4524C79.1341 26.1294 79.4049 27.0771 79.2695 27.8894L75.7495 63.7664C75.6141 65.3911 74.1249 66.7449 72.5003 66.7449Z" fill="#495057"/>
<path d="M58.2848 35.8772L61.2633 32.8987C61.6694 32.4926 61.6694 31.8156 61.2633 31.4095C60.8571 31.0033 60.1802 31.0033 59.774 31.4095L56.7956 34.3879L53.0048 30.5972C52.5986 30.191 51.9217 30.191 51.5156 30.5972C51.1094 31.0033 51.1094 31.6802 51.5156 32.0864L55.3063 35.8772L51.7863 39.3972C51.3802 39.8034 51.3802 40.4803 51.7863 40.8864C52.1925 41.2926 52.8694 41.2926 53.2756 40.8864L56.7956 37.3664L60.5864 41.1572C60.9925 41.5634 61.6694 41.5634 62.0756 41.1572C62.4818 40.751 62.4818 40.0741 62.0756 39.668L58.2848 35.8772Z" fill="#495057"/>
<path d="M76.6972 0.406247C75.4787 2.03087 74.531 3.65549 73.8541 5.55088C73.7187 6.09242 73.9895 6.63396 74.531 6.76935C75.0725 6.90473 75.6141 6.63396 75.7495 6.09242C76.291 4.4678 77.1033 2.84318 78.1864 1.48933C78.5926 1.08317 78.4572 0.406247 78.051 9.15527e-05C77.6449 9.15527e-05 77.1033 9.11493e-05 76.6972 0.406247Z" fill="#495057"/>
<path d="M85.362 4.3324C85.0912 3.92625 84.4143 3.65548 84.0081 4.06163L77.645 8.12319C77.2389 8.39396 77.1035 9.07088 77.3743 9.47704C77.645 9.88319 78.322 10.154 78.7281 9.74781L85.0912 5.68625C85.4974 5.41548 85.6328 4.73856 85.362 4.3324Z" fill="#495057"/>
<path d="M87.2571 11.6432L80.0817 12.1848C79.5402 12.1848 79.134 12.7263 79.134 13.2678C79.134 13.8094 79.6756 14.2155 80.2171 14.2155L87.3925 13.674C87.9341 13.674 88.3402 13.1325 88.3402 12.5909C88.2048 12.0494 87.7987 11.6432 87.2571 11.6432Z" fill="#495057"/>
</svg>
