<svg width="87" height="87" viewBox="0 0 87 87" fill="none" xmlns="http://www.w3.org/2000/svg">
<path d="M52.4597 18.25L57.5125 13.3248C57.8724 12.9744 58.127 12.5301 58.2476 12.0424C58.3681 11.5547 58.3498 11.043 58.1945 10.5652C58.0393 10.0874 57.7535 9.66255 57.3694 9.33878C56.9852 9.015 56.5181 8.80522 56.0209 8.73315L49.0364 7.71878L45.9141 1.38956C45.6662 0.969859 45.3132 0.622043 44.8898 0.38042C44.4665 0.138798 43.9875 0.0117187 43.5 0.0117188C43.0126 0.0117188 42.5335 0.138798 42.1102 0.38042C41.6868 0.622043 41.3338 0.969859 41.0859 1.38956L37.9639 7.71851L30.9793 8.73288C30.4822 8.80495 30.0151 9.01474 29.6309 9.33851C29.2468 9.66228 28.9609 10.0871 28.8057 10.5649C28.6505 11.0427 28.6322 11.5544 28.7527 12.0421C28.8732 12.5299 29.1279 12.9741 29.4878 13.3246L34.5405 18.2497L33.3472 25.2066C33.2622 25.7016 33.3174 26.2106 33.5067 26.6759C33.6959 27.1412 34.0116 27.5442 34.4179 27.8394C34.8243 28.1347 35.3052 28.3103 35.8062 28.3464C36.3072 28.3825 36.8083 28.2777 37.2529 28.0438L43.5 24.7587L49.7474 28.0441C50.1919 28.2779 50.693 28.3827 51.194 28.3466C51.695 28.3105 52.1759 28.1349 52.5823 27.8397C52.9887 27.5445 53.3044 27.1414 53.4936 26.6762C53.6828 26.2109 53.7381 25.7019 53.6531 25.2068L52.4597 18.25Z" fill="url(#paint0_linear_8209_2729)"/>
<path d="M86.4302 18.5209C86.2748 18.0432 85.9889 17.6185 85.6048 17.2947C85.2207 16.971 84.7537 16.7611 84.2566 16.6889L77.2731 15.6743L74.1482 9.34558C73.9007 8.92566 73.5478 8.5776 73.1245 8.33579C72.7013 8.09398 72.2222 7.9668 71.7348 7.9668C71.2473 7.9668 70.7683 8.09398 70.345 8.33579C69.9217 8.5776 69.5689 8.92566 69.3213 9.34558L66.1994 15.6743L59.2161 16.6889C58.7191 16.7609 58.2522 16.9706 57.8681 17.2942C57.484 17.6178 57.1982 18.0424 57.0428 18.52C56.8875 18.9976 56.8689 19.5092 56.9892 19.9968C57.1094 20.4844 57.3637 20.9286 57.7232 21.2793L62.7773 26.2044L61.584 33.1615C61.4989 33.6565 61.5539 34.1654 61.743 34.6307C61.932 35.096 62.2475 35.4991 62.6538 35.7945C63.06 36.0898 63.5408 36.2656 64.0417 36.3019C64.5426 36.3383 65.0437 36.2337 65.4883 36.0001L71.7344 32.7166L77.9818 36.0001C78.4263 36.234 78.9274 36.3388 79.4284 36.3027C79.9294 36.2665 80.4103 36.091 80.8167 35.7957C81.2231 35.5005 81.5387 35.0975 81.728 34.6322C81.9172 34.1669 81.9724 33.6579 81.8874 33.1629L80.6944 26.2058L85.7474 21.2806C86.1074 20.9302 86.3622 20.486 86.4829 19.9983C86.6036 19.5105 86.5853 18.9988 86.4302 18.5209Z" fill="url(#paint1_linear_8209_2729)"/>
<path d="M27.7843 16.6893L20.8011 15.6747L17.6791 9.34602C17.4569 8.89567 17.113 8.51649 16.6865 8.25135C16.26 7.98622 15.7678 7.8457 15.2656 7.8457C14.7634 7.8457 14.2713 7.98622 13.8448 8.25135C13.4182 8.51649 13.0744 8.89567 12.8522 9.34602L9.727 15.6747L2.74351 16.6893C2.24638 16.7614 1.77935 16.9712 1.39526 17.295C1.01117 17.6188 0.725352 18.0435 0.57015 18.5213C0.414949 18.9991 0.396555 19.5107 0.517051 19.9984C0.637546 20.4861 0.892121 20.9303 1.25197 21.2808L6.30577 26.2062L5.11243 33.1633C5.02743 33.6584 5.08267 34.1673 5.2719 34.6326C5.46113 35.0979 5.77679 35.501 6.18318 35.7962C6.58957 36.0914 7.07047 36.267 7.57147 36.3031C8.07247 36.3392 8.57358 36.2344 9.0181 36.0005L15.2655 32.7171L21.5116 36.0005C21.9561 36.2344 22.4572 36.3392 22.9582 36.3031C23.4592 36.267 23.9401 36.0914 24.3465 35.7962C24.7529 35.501 25.0685 35.0979 25.2578 34.6326C25.447 34.1673 25.5022 33.6584 25.4172 33.1633L24.2239 26.2062L29.278 21.281C29.6375 20.9304 29.8918 20.4862 30.0121 19.9986C30.1323 19.5109 30.1137 18.9994 29.9584 18.5218C29.8031 18.0442 29.5172 17.6196 29.1331 17.296C28.7491 16.9724 28.2813 16.7614 27.7843 16.6893Z" fill="url(#paint2_linear_8209_2729)"/>
<path d="M70.4135 40.2578H16.5867C14.4461 40.2602 12.3938 41.1116 10.8801 42.6252C9.36645 44.1389 8.51505 46.1912 8.5127 48.3318V69.8626C8.51505 72.0032 9.36645 74.0555 10.8801 75.5692C12.3938 77.0828 14.4461 77.9342 16.5867 77.9366H34.3116L41.5973 85.222C41.8472 85.472 42.1438 85.6703 42.4703 85.8056C42.7968 85.9409 43.1467 86.0106 43.5001 86.0106C43.8535 86.0106 44.2035 85.9409 44.53 85.8056C44.8565 85.6703 45.1531 85.472 45.4029 85.222L52.6886 77.9366H70.4135C72.5542 77.9342 74.6065 77.0828 76.1201 75.5692C77.6338 74.0555 78.4852 72.0032 78.4875 69.8626V48.3318C78.4852 46.1912 77.6338 44.1389 76.1201 42.6252C74.6065 41.1116 72.5542 40.2602 70.4135 40.2578ZM65.0308 67.1712H21.9694C21.2556 67.1712 20.5711 66.8877 20.0663 66.3829C19.5616 65.8782 19.2781 65.1937 19.2781 64.4799C19.2781 63.7661 19.5616 63.0815 20.0663 62.5768C20.5711 62.0721 21.2556 61.7885 21.9694 61.7885H65.0308C65.7446 61.7885 66.4292 62.0721 66.9339 62.5768C67.4386 63.0815 67.7222 63.7661 67.7222 64.4799C67.7222 65.1937 67.4386 65.8782 66.9339 66.3829C66.4292 66.8877 65.7446 67.1712 65.0308 67.1712ZM65.0308 56.4059H21.9694C21.2556 56.4059 20.5711 56.1223 20.0663 55.6176C19.5616 55.1129 19.2781 54.4283 19.2781 53.7145C19.2781 53.0007 19.5616 52.3162 20.0663 51.8114C20.5711 51.3067 21.2556 51.0232 21.9694 51.0232H65.0308C65.7446 51.0232 66.4292 51.3067 66.9339 51.8114C67.4386 52.3162 67.7222 53.0007 67.7222 53.7145C67.7222 54.4283 67.4386 55.1129 66.9339 55.6176C66.4292 56.1223 65.7446 56.4059 65.0308 56.4059Z" fill="url(#paint3_linear_8209_2729)"/>
<defs>
<linearGradient id="paint0_linear_8209_2729" x1="28.6734" y1="14.1847" x2="58.3257" y2="14.1847" gradientUnits="userSpaceOnUse">
<stop stop-color="#EC202A"/>
<stop offset="0.0001" stop-color="#EC202A"/>
<stop offset="1" stop-color="#D74011"/>
</linearGradient>
<linearGradient id="paint1_linear_8209_2729" x1="56.9102" y1="22.1403" x2="86.5611" y2="22.1403" gradientUnits="userSpaceOnUse">
<stop stop-color="#EC202A"/>
<stop offset="0.0001" stop-color="#EC202A"/>
<stop offset="1" stop-color="#D74011"/>
</linearGradient>
<linearGradient id="paint2_linear_8209_2729" x1="0.437754" y1="22.08" x2="30.0898" y2="22.08" gradientUnits="userSpaceOnUse">
<stop stop-color="#EC202A"/>
<stop offset="0.0001" stop-color="#EC202A"/>
<stop offset="1" stop-color="#D74011"/>
</linearGradient>
<linearGradient id="paint3_linear_8209_2729" x1="8.51099" y1="63.1375" x2="78.4863" y2="63.1375" gradientUnits="userSpaceOnUse">
<stop stop-color="#EC202A"/>
<stop offset="0.0001" stop-color="#EC202A"/>
<stop offset="1" stop-color="#D74011"/>
</linearGradient>
</defs>
</svg>
