<svg width="22" height="24" viewBox="0 0 22 24" fill="none" xmlns="http://www.w3.org/2000/svg">
<path fill-rule="evenodd" clip-rule="evenodd" d="M11 0.587828C10.5444 0.587828 10.175 0.957197 10.175 1.41283V13.4827L8.3264 11.3259C8.02988 10.98 7.50906 10.9399 7.16312 11.2365C6.81717 11.5329 6.7771 12.0538 7.07363 12.3997L10.3737 16.2497C10.5303 16.4326 10.7592 16.5378 11 16.5378C11.2408 16.5378 11.4697 16.4326 11.6264 16.2497L14.9264 12.3997C15.2229 12.0538 15.1829 11.5329 14.8369 11.2365C14.491 10.9399 13.9701 10.98 13.6737 11.3259L11.825 13.4827V1.41283C11.825 0.957197 11.4556 0.587828 11 0.587828Z" fill="url(#paint0_linear_1_1289)"/>
<path d="M13.475 9.11271V9.52881C14.282 9.24441 15.2143 9.38672 15.9106 9.98354C16.9485 10.8731 17.0687 12.4356 16.1791 13.4734L12.8791 17.3234C12.4089 17.872 11.7225 18.1877 11 18.1877C10.2774 18.1877 9.59101 17.872 9.12076 17.3234L5.82079 13.4734C4.93122 12.4356 5.05142 10.8731 6.08925 9.98354C6.78555 9.38672 7.71801 9.24441 8.52496 9.52881V9.11271H6.6C3.48873 9.11271 1.9331 9.11271 0.966548 10.0793C0 11.0458 0 12.6015 0 15.7127V16.8127C0 19.9239 0 21.4796 0.966548 22.4461C1.9331 23.4127 3.48873 23.4127 6.59999 23.4127H15.4C18.5112 23.4127 20.0669 23.4127 21.0334 22.4461C22 21.4796 22 19.9239 22 16.8127V15.7127C22 12.6015 22 11.0458 21.0334 10.0793C20.0669 9.11271 18.5112 9.11271 15.4 9.11271H13.475Z" fill="url(#paint1_linear_1_1289)"/>
<defs>
<linearGradient id="paint0_linear_1_1289" x1="6.8748" y1="8.56399" x2="15.1249" y2="8.56399" gradientUnits="userSpaceOnUse">
<stop stop-color="#EC202A"/>
<stop offset="0.0001" stop-color="#EC202A"/>
<stop offset="1" stop-color="#D74011"/>
</linearGradient>
<linearGradient id="paint1_linear_1_1289" x1="-0.000535839" y1="16.2637" x2="21.9996" y2="16.2637" gradientUnits="userSpaceOnUse">
<stop stop-color="#EC202A"/>
<stop offset="0.0001" stop-color="#EC202A"/>
<stop offset="1" stop-color="#D74011"/>
</linearGradient>
</defs>
</svg>
