<svg width="21" height="22" viewBox="0 0 21 22" fill="none" xmlns="http://www.w3.org/2000/svg">
<path fill-rule="evenodd" clip-rule="evenodd" d="M10.5 0.500267C10.9046 0.500267 11.2326 0.828248 11.2326 1.23283V11.9502L12.8741 10.0351C13.1373 9.72796 13.5998 9.69241 13.907 9.95574C14.2142 10.219 14.2497 10.6815 13.9864 10.9886L11.0562 14.4072C10.9171 14.5696 10.7138 14.6631 10.5 14.6631C10.2862 14.6631 10.0829 14.5696 9.94384 14.4072L7.01357 10.9886C6.75027 10.6815 6.78584 10.219 7.09303 9.95574C7.40021 9.69241 7.86267 9.72796 8.12597 10.0351L9.76744 11.9502V1.23283C9.76744 0.828248 10.0954 0.500267 10.5 0.500267ZM5.61221 7.33939C6.01677 7.33714 6.34657 7.66329 6.34883 8.06787C6.35108 8.47244 6.02493 8.80224 5.62036 8.80449C4.55229 8.81044 3.79524 8.83818 3.22067 8.94371C2.66704 9.0454 2.34659 9.20872 2.1088 9.44646C1.83848 9.71683 1.66222 10.0964 1.56587 10.813C1.46667 11.5509 1.46512 12.5287 1.46512 13.9307V14.9074C1.46512 16.3095 1.46667 17.2873 1.56587 18.0251C1.66222 18.7418 1.83848 19.1213 2.1088 19.3917C2.37912 19.662 2.75867 19.8382 3.47537 19.9346C4.21316 20.0338 5.19099 20.0353 6.59302 20.0353H14.407C15.809 20.0353 16.7868 20.0338 17.5246 19.9346C18.2414 19.8382 18.6208 19.662 18.8912 19.3917C19.1616 19.1213 19.3378 18.7418 19.4342 18.0251C19.5333 17.2873 19.5349 16.3095 19.5349 14.9074V13.9307C19.5349 12.5287 19.5333 11.5509 19.4342 10.813C19.3378 10.0964 19.1616 9.71683 18.8912 9.44646C18.6534 9.20872 18.333 9.0454 17.7794 8.94371C17.2048 8.83818 16.4477 8.81044 15.3796 8.80449C14.9751 8.80224 14.6489 8.47244 14.6512 8.06787C14.6534 7.66329 14.9833 7.33714 15.3878 7.33939C16.4442 7.34528 17.3246 7.37056 18.044 7.5027C18.7844 7.63869 19.4144 7.89778 19.9272 8.4105C20.5151 8.99841 20.768 9.7387 20.8862 10.6179C21 11.4646 21 12.5414 21 13.8771V14.9611C21 16.2969 21 17.3735 20.8862 18.2204C20.768 19.0995 20.5151 19.8397 19.9272 20.4277C19.3392 21.0156 18.5991 21.2685 17.7199 21.3867C16.8731 21.5006 15.7964 21.5005 14.4606 21.5005H6.53943C5.20364 21.5005 4.12696 21.5006 3.28015 21.3867C2.40097 21.2685 1.66073 21.0156 1.07281 20.4277C0.484886 19.8397 0.232016 19.0995 0.113811 18.2204C-3.85115e-05 17.3735 -1.90232e-05 16.2969 5.11709e-07 14.9611V13.8771C-1.90232e-05 12.5414 -3.85115e-05 11.4646 0.113811 10.6179C0.232016 9.7387 0.484886 8.99841 1.07281 8.4105C1.58553 7.89777 2.2156 7.63869 2.95597 7.5027C3.6754 7.37056 4.55583 7.34527 5.61221 7.33939Z" fill="#ADB5BD"/>
</svg>
