<svg width="22" height="22" viewBox="0 0 22 22" fill="none" xmlns="http://www.w3.org/2000/svg">
<path d="M9.71817 18.1416C14.4646 18.1416 18.3123 14.3833 18.3123 9.7473C18.3123 5.11126 14.4646 1.35301 9.71817 1.35301C4.97174 1.35301 1.12401 5.11126 1.12401 9.7473C1.12401 14.3833 4.97174 18.1416 9.71817 18.1416Z" fill="url(#paint0_linear_1_963)"/>
<path d="M21.4878 20.049L17.0013 15.6384C18.3706 14.045 19.1863 11.9677 19.1863 9.74819C19.1863 4.65477 14.9329 0.500267 9.71815 0.500267C4.5034 0.500267 0.249985 4.65477 0.249985 9.74825C0.249985 14.8417 4.5034 18.9962 9.71815 18.9962C12.0196 18.9962 14.1172 18.1995 15.7487 16.8621L20.2643 21.2442C20.4391 21.4149 20.6721 21.5003 20.876 21.5003C21.0799 21.5003 21.313 21.4149 21.4878 21.2442C21.8374 20.9312 21.8374 20.3905 21.4878 20.049ZM1.99796 9.74825C1.99796 5.59375 5.46474 2.20759 9.71815 2.20759C13.9716 2.20759 17.4384 5.59375 17.4384 9.74825C17.4384 13.9027 13.9716 17.2889 9.71815 17.2889C5.46474 17.2889 1.99796 13.9027 1.99796 9.74825Z" fill="url(#paint1_linear_1_963)"/>
<defs>
<linearGradient id="paint0_linear_1_963" x1="1.12359" y1="9.74853" x2="18.312" y2="9.74853" gradientUnits="userSpaceOnUse">
<stop stop-color="#EC202A"/>
<stop offset="0.0001" stop-color="#EC202A"/>
<stop offset="1" stop-color="#D74011"/>
</linearGradient>
<linearGradient id="paint1_linear_1_963" x1="0.249461" y1="11.0018" x2="21.7496" y2="11.0018" gradientUnits="userSpaceOnUse">
<stop stop-color="#EC202A"/>
<stop offset="0.0001" stop-color="#EC202A"/>
<stop offset="1" stop-color="#D74011"/>
</linearGradient>
</defs>
</svg>
