<svg width="21" height="22" viewBox="0 0 21 22" fill="none" xmlns="http://www.w3.org/2000/svg">
<path d="M9.24795 0.502033C4.14877 0.502033 0 4.6508 0 9.74998C0 14.8495 4.14877 18.9979 9.24795 18.9979C14.3474 18.9979 18.4959 14.8495 18.4959 9.74998C18.4959 4.6508 14.3474 0.502033 9.24795 0.502033ZM9.24795 17.2907C5.09008 17.2907 1.70732 13.9079 1.70732 9.75002C1.70732 5.59215 5.09008 2.20935 9.24795 2.20935C13.4058 2.20935 16.7886 5.59211 16.7886 9.74998C16.7886 13.9079 13.4058 17.2907 9.24795 17.2907Z" fill="#ADB5BD"/>
<path d="M20.75 20.0413L15.8556 15.147C15.5222 14.8135 14.9821 14.8135 14.6486 15.147C14.3151 15.4802 14.3151 16.0209 14.6486 16.3541L19.5429 21.2484C19.7096 21.4151 19.9279 21.4985 20.1464 21.4985C20.3647 21.4985 20.5832 21.4151 20.75 21.2484C21.0835 20.9152 21.0835 20.3745 20.75 20.0413Z" fill="#ADB5BD"/>
</svg>
